<?xml version="1.0" encoding="UTF-8"?>
<svg width="356px" height="162px" viewBox="0 0 356 162" version="1.1" xmlns="http://www.w3.org/2000/svg" xmlns:xlink="http://www.w3.org/1999/xlink">
    <!-- Generator: Sketch 49.3 (51167) - http://www.bohemiancoding.com/sketch -->
    <title>logo 2</title>
    <desc>Created with Sketch.</desc>
    <defs></defs>
    <g id="Page-1" stroke="none" stroke-width="1" fill="none" fill-rule="evenodd">
        <g id="logo" fill-rule="nonzero">
            <path d="M312.136117,0.405855932 C326.467243,-0.360838983 339.045571,9.86504237 340.785739,24.1438559 L355.076167,124.241856 C357.082974,140.698364 343.937688,154.970144 327.407495,154.451042 C203.520159,150.562703 132.25782,149.032223 41.6750549,161.06863 C23.3251365,163.573805 14.119657,160.13845 11.7123306,142.476763 C7.13907268,108.924417 5.70197222,103.124327 1,70.1411982 C-1.87126658,50 4.66227739,45.0222587 25.8108525,40.2042188 C139.744147,13.4247612 222.131537,5.22126271 312.136117,0.405855932 Z" id="Fill-1" fill="#B6223E"></path>
            <g id="Icon" transform="translate(50.000000, 56.000000)" fill="#FEFEFE">
                <path d="M43.0833882,23.2802074 C42.9704471,23.3294667 42.8193882,23.3956148 42.6528,23.423763 L38.6278588,24.1499852 C37.6269176,24.3188741 36.5963294,24.3202815 35.5600941,24.1021333 C34.7229176,23.9304296 33.9408,23.779837 33.2504471,23.6348741 L27.9775059,31.7359111 L27.1982118,32.923763 C27.1036235,33.0110222 27.0231529,33.1348741 26.9426824,33.2587259 L27.1233882,33.6710963 C27.6386824,34.7421333 27.5328,36.0383556 26.8565647,37.0474667 L21.6711529,44.5306519 C21.4311529,44.9036148 21.0655059,45.1963556 20.6518588,45.3765037 C19.9008,45.7044296 18.9845647,45.6565778 18.2744471,45.1625778 C17.1365647,44.4068 16.8683294,42.8727259 17.6419765,41.7763556 L18.8151529,40.0593185 L19.3106824,39.3513926 L22.3516235,34.9462074 L20.6617412,31.3967259 C20.1648,30.3622815 20.2255059,29.1744296 20.8269176,28.1976889 C20.8269176,28.1976889 22.4405647,25.4405778 23.9483294,22.9536889 C18.7276235,26.1653926 13.4137412,33.2573185 9.8928,35.9525037 C9.26032941,36.4521333 8.28903529,36.0721333 8.12527059,35.293837 C7.78644706,33.7006519 6.87162353,31.5093185 6.04009412,29.1026519 C5.81421176,28.4862074 6.14315294,27.8064296 6.77844706,27.6192444 C10.9403294,26.387763 20.3723294,19.5984296 23.5389176,18.4429481 C27.0062118,17.1551704 28.7949176,18.4753185 31.0833882,18.9974667 C32.2113882,19.219837 33.8843294,19.561837 36.4480941,20.0980593 C36.9379765,20.1965778 37.4349176,20.2036148 37.9360941,20.1191704 L41.9624471,19.3929481 C43.0382118,19.1916889 44.1210353,19.9263556 44.2650353,21.0691704 C44.4542118,22.0135407 43.9488,22.9030222 43.0833882,23.2802074 M15.7572706,41.9719852 L14.8071529,42.5645037 C14.6730353,42.6672444 14.5600941,42.7165037 14.4471529,42.765763 C13.3558588,43.2414667 12.0711529,42.8628741 11.4076235,41.8579852 C10.6932706,40.7405037 11.0095059,39.2176889 12.1699765,38.4886519 L18.3450353,34.5929481 L19.7906824,33.2939111 L20.5022118,34.8139111 L16.3135059,40.7911704 C16.0735059,41.1641333 15.8871529,41.5568 15.7572706,41.9719852 M28.1229176,13.6788741 C28.3798588,11.3876148 30.4495059,9.73813333 32.7478588,9.99287407 C35.0462118,10.2476148 36.7008,12.3122815 36.4452706,14.6035407 C36.1883294,16.8933926 34.1186824,18.5442815 31.8203294,18.2895407 C29.5233882,18.0333926 27.8673882,15.9701333 28.1229176,13.6788741 M42.3577412,6.83465185 C38.9511529,2.80805926 32.8650353,0.792651852 24.0979765,0.792651852 C15.3309176,0.792651852 9.23068235,2.80805926 5.79727059,6.83465185 C2.36244706,10.8640593 0.647152941,18.2740593 0.647152941,29.0674667 C0.647152941,39.8622815 2.36244706,47.2722815 5.79727059,51.3002815 C9.23068235,55.3282815 15.3309176,57.3422815 24.0979765,57.3422815 C32.8650353,57.3422815 38.9511529,55.3282815 42.3577412,51.3002815 C45.7643294,47.2722815 47.4669176,39.8622815 47.4669176,29.0674667 C47.4669176,18.2740593 45.7643294,10.8640593 42.3577412,6.83465185" id="Fill-4"></path>
                <path d="M18.6269647,66.2659481 C25.2424941,70.0870593 31.9992,72.9243926 38.8956706,74.7779481 C39.7907294,75.0186148 40.7154353,74.4992815 40.9963765,73.6182444 L43.2904941,66.3841704 C43.6109647,65.3694296 42.9460235,64.3124667 41.8914353,64.1506148 C33.9784941,62.9303926 27.2189647,61.4061704 21.6100235,59.5765407 C20.7672,59.3006889 19.8523765,59.7158741 19.4923765,60.5237259 L17.9168471,64.0591333 C17.5568471,64.8655778 17.8589647,65.8240222 18.6269647,66.2659481" id="Fill-6"></path>
            </g>
        </g>
        <text id="QUARANTAINE-HELDEN" font-family="Futura-Bold, Futura" font-size="25" font-weight="bold" line-spacing="26" fill="#FFFFFF">
            <tspan x="117" y="84">QUARANTAINE</tspan>
            <tspan x="117" y="110">HELDEN</tspan>
        </text>
    </g>
</svg>